<?xml version="1.0" standalone="no"?>
<!DOCTYPE svg PUBLIC "-//W3C//DTD SVG 20010904//EN"
 "http://www.w3.org/TR/2001/REC-SVG-20010904/DTD/svg10.dtd">
<svg version="1.0" xmlns="http://www.w3.org/2000/svg"
 width="20pt" height="20pt" viewBox="0 0 512.000000 512.000000"
 preserveAspectRatio="xMidYMid meet">

<g transform="translate(0.000000,512.000000) scale(0.100000,-0.100000)"
fill="#ECAB39" stroke="none">
<path d="M1765 4031 c-147 -39 -256 -104 -366 -218 -126 -130 -871 -965 -901
-1010 -92 -135 -90 -353 2 -489 37 -55 904 -1018 962 -1069 67 -58 146 -103
245 -139 l88 -31 1291 0 1290 0 75 37 c93 46 158 112 202 206 l32 67 0 1176 0
1175 -37 75 c-46 93 -112 158 -206 202 l-67 32 -1270 2 c-1207 2 -1273 1
-1340 -16z m2503 -1468 l-3 -1068 -1195 0 -1195 0 -67 33 c-64 31 -86 54 -512
529 -246 272 -446 499 -446 503 0 4 200 230 445 502 302 336 458 501 486 517
91 51 45 50 1307 50 l1182 1 -2 -1067z"/>
<path d="M2486 3185 c-108 -38 -166 -174 -121 -282 10 -23 77 -99 167 -190
l152 -153 -152 -153 c-161 -162 -182 -195 -182 -274 1 -153 160 -257 295 -194
24 11 101 80 190 170 l149 151 161 -158 c127 -125 169 -161 201 -170 63 -18
105 -15 163 14 91 46 134 140 110 240 -11 44 -27 65 -173 212 l-160 162 160
163 c146 146 162 167 173 211 24 100 -19 194 -110 240 -58 29 -100 32 -163 14
-32 -9 -74 -45 -201 -170 l-161 -158 -149 151 c-89 90 -166 159 -190 170 -47
22 -105 24 -159 4z"/>
</g>
</svg>
