<?xml version="1.0" standalone="no"?>
<!DOCTYPE svg PUBLIC "-//W3C//DTD SVG 20010904//EN"
 "http://www.w3.org/TR/2001/REC-SVG-20010904/DTD/svg10.dtd">
<svg version="1.0" xmlns="http://www.w3.org/2000/svg"
 width="20pt" height="20pt" viewBox="0 0 512.000000 512.000000"
 preserveAspectRatio="xMidYMid meet">

<g class= "path" transform="translate(0.000000,512.000000) scale(0.100000,-0.100000)"
fill="#acacac" stroke="none">
<path d="M451 4124 c-257 -69 -451 -322 -451 -589 0 -270 195 -522 456 -589
56 -14 273 -16 2104 -16 2270 0 2093 -5 2235 68 99 51 208 163 258 263 88 179
88 369 0 548 -50 101 -159 212 -259 264 -140 72 37 67 -2239 66 -1755 0 -2058
-2 -2104 -15z"/>
<path d="M445 2171 c-101 -29 -184 -79 -265 -161 -189 -189 -232 -457 -113
-699 50 -101 159 -212 259 -264 140 -72 -36 -67 2234 -67 1803 0 2053 2 2104
15 260 68 456 321 456 590 0 270 -195 522 -456 589 -56 14 -272 16 -2110 15
-1910 0 -2053 -2 -2109 -18z"/>
</g>
</svg>
