<?xml version="1.0" standalone="no"?>
<!DOCTYPE svg PUBLIC "-//W3C//DTD SVG 20010904//EN"
 "http://www.w3.org/TR/2001/REC-SVG-20010904/DTD/svg10.dtd">
<svg version="1.0" xmlns="http://www.w3.org/2000/svg"
 width="20pt" height="20pt" viewBox="0 0 512.000000 512.000000"
 preserveAspectRatio="xMidYMid meet">

<g transform="translate(0.000000,512.000000) scale(0.100000,-0.100000)"
fill="#ECAB39" stroke="none">
<path d="M782 4469 c-46 -14 -118 -88 -131 -135 -7 -26 -11 -266 -11 -715 l0
-677 28 -53 c20 -39 41 -62 77 -84 l48 -30 666 -3 c483 -2 681 0 720 8 77 17
144 84 161 161 8 39 10 237 8 720 l-3 666 -30 48 c-22 36 -45 57 -84 77 l-53
28 -682 -1 c-401 0 -695 -5 -714 -10z m1138 -844 l0 -425 -425 0 -425 0 0 425
0 425 425 0 425 0 0 -425z"/>
<path d="M3364 4260 c-18 -4 -47 -16 -65 -28 -47 -29 -484 -470 -502 -507 -23
-48 -29 -100 -16 -152 11 -44 32 -68 262 -300 277 -279 291 -289 392 -281 108
9 188 97 188 207 0 67 -19 109 -77 169 l-41 43 206 -3 c200 -3 206 -4 242 -28
21 -14 50 -43 65 -64 26 -38 27 -45 33 -210 3 -99 11 -184 18 -201 21 -51 81
-104 136 -121 102 -30 202 13 249 107 25 51 26 60 26 213 0 194 -14 270 -71
386 -82 165 -252 297 -434 335 -48 10 -133 15 -268 15 l-199 0 46 51 c94 104
96 220 7 309 -60 60 -121 79 -197 60z"/>
<path d="M802 2340 c-57 -13 -108 -55 -136 -111 -25 -51 -26 -60 -26 -213 0
-102 6 -187 15 -231 38 -182 170 -352 335 -434 121 -59 189 -71 424 -71 l199
0 -41 -44 c-101 -110 -106 -223 -12 -316 74 -75 165 -87 255 -35 49 29 487
468 508 510 23 48 29 100 16 152 -11 44 -32 68 -258 296 -135 137 -263 257
-283 268 -69 35 -179 20 -236 -34 -41 -38 -65 -97 -65 -157 0 -66 19 -109 77
-168 l41 -43 -206 3 -206 3 -39 27 c-21 15 -50 44 -64 65 -24 34 -25 46 -31
207 -3 94 -11 183 -17 198 -22 53 -81 107 -135 123 -55 16 -66 17 -115 5z"/>
<path d="M2921 2335 c-24 -7 -61 -31 -83 -52 -70 -68 -69 -55 -66 -815 l3
-675 30 -48 c22 -36 45 -57 84 -77 l53 -28 675 0 c506 0 686 3 717 12 53 16
118 81 134 134 9 31 12 211 12 717 l0 675 -28 53 c-20 39 -41 62 -77 84 l-48
30 -681 2 c-557 2 -689 -1 -725 -12z m1129 -840 l0 -425 -425 0 -425 0 0 425
0 425 425 0 425 0 0 -425z"/>
</g>
</svg>
